<svg width="289" height="289" viewBox="0 0 289 289" fill="none" xmlns="http://www.w3.org/2000/svg">
<path d="M150.709 282.791C227.085 282.791 289 220.876 289 144.5C289 68.124 227.085 6.20898 150.709 6.20898C74.333 6.20898 12.418 68.124 12.418 144.5C12.418 220.876 74.333 282.791 150.709 282.791Z" fill="#69CDFF"/>
<path d="M149.258 202.373H104.83V225.646H149.258V202.373Z" fill="#445EA0"/>
<path d="M116.03 202.373H104.83V225.646H116.03V202.373Z" fill="#2E4C89"/>
<path d="M178.85 225.083H72.0016C70.4178 225.083 69.1224 226.379 69.1224 227.963V242.396C69.1224 243.98 70.4184 245.276 72.0016 245.276H178.85V225.083Z" fill="#293D7C"/>
<path d="M80.3223 242.396V227.962C80.3223 226.378 81.6182 225.082 83.2021 225.082H72.0016C70.4178 225.082 69.1224 226.378 69.1224 227.962V242.396C69.1224 243.98 70.4184 245.276 72.0016 245.276H83.2015C81.6182 245.276 80.3223 243.98 80.3223 242.396Z" fill="#1A2B63"/>
<path d="M251.212 33.2824H2.87984C1.29598 33.2824 0 34.5784 0 36.1623V200.059C0 201.644 1.29598 202.939 2.87984 202.939H178.85V116.711C178.85 114.533 180.623 112.76 182.802 112.76H254.092V36.1623C254.092 34.5784 252.796 33.2824 251.212 33.2824Z" fill="#293D7C"/>
<path d="M12.6415 174.142C12.6415 175.092 13.4187 175.869 14.3693 175.869H178.85V116.711C178.85 114.533 180.623 112.76 182.802 112.76H241.45V61.5243H12.6415V174.142Z" fill="white"/>
<path d="M23.8419 174.142V61.5243H12.6415V174.142C12.6415 175.092 13.4187 175.869 14.3693 175.869H25.5697C24.6192 175.869 23.8419 175.092 23.8419 174.142Z" fill="#D9EAFC"/>
<path d="M127.047 197.126C131.341 197.126 134.822 193.645 134.822 189.351C134.822 185.058 131.341 181.577 127.047 181.577C122.753 181.577 119.272 185.058 119.272 189.351C119.272 193.645 122.753 197.126 127.047 197.126Z" fill="#445EA0"/>
<path d="M178.85 125.955H148.695C147.764 125.955 147.002 126.717 147.002 127.649V161.312C147.002 162.244 147.764 163.006 148.695 163.006H178.85V125.955Z" fill="#C3DDF4"/>
<path d="M158.202 161.312V127.649C158.202 126.717 158.964 125.955 159.895 125.955H148.695C147.764 125.955 147.002 126.717 147.002 127.649V161.312C147.002 162.244 147.764 163.006 148.695 163.006H159.895C158.964 163.006 158.202 162.244 158.202 161.312Z" fill="#AEC1ED"/>
<path d="M182.802 112.76H209.115V75.8546C209.115 74.3024 207.845 73.0323 206.293 73.0323H47.799C46.2468 73.0323 44.9767 74.3024 44.9767 75.8546V113.405C44.9767 114.957 46.2468 116.227 47.799 116.227H178.884C179.123 114.276 180.788 112.76 182.802 112.76Z" fill="#C3DDF4"/>
<path d="M56.1766 113.404V75.854C56.1766 74.3018 57.4466 73.0318 58.9989 73.0318H47.799C46.2468 73.0318 44.9767 74.3018 44.9767 75.854V113.404C44.9767 114.957 46.2468 116.227 47.799 116.227H58.9989C57.4466 116.227 56.1766 114.957 56.1766 113.404Z" fill="#AEC1ED"/>
<path d="M239.723 47.9689H14.3693C13.4187 47.9689 12.6415 48.7462 12.6415 49.6973V62.0887H241.45V49.6973C241.45 48.7462 240.673 47.9689 239.723 47.9689Z" fill="#FFAF10"/>
<path d="M25.5697 47.9689H14.3693C13.4187 47.9689 12.6415 48.7462 12.6415 49.6973V62.0887H23.8414V49.6973C23.8419 48.7462 24.6192 47.9689 25.5697 47.9689Z" fill="#FF9518"/>
<path d="M96.806 134.892H49.2959C46.958 134.892 45.0625 132.998 45.0625 130.659C45.0625 128.321 46.958 126.426 49.2959 126.426H96.806C99.1439 126.426 101.039 128.321 101.039 130.659C101.039 132.998 99.1439 134.892 96.806 134.892Z" fill="#5DC1D8"/>
<path d="M96.806 148.714H49.2959C46.958 148.714 45.0625 146.819 45.0625 144.481C45.0625 142.142 46.958 140.247 49.2959 140.247H96.806C99.1439 140.247 101.039 142.142 101.039 144.481C101.039 146.819 99.1439 148.714 96.806 148.714Z" fill="#5DC1D8"/>
<path d="M96.806 162.536H49.2959C46.958 162.536 45.0625 160.641 45.0625 158.303C45.0625 155.964 46.958 154.069 49.2959 154.069H96.806C99.1439 154.069 101.039 155.964 101.039 158.303C101.039 160.641 99.1439 162.536 96.806 162.536Z" fill="#5DC1D8"/>
<path d="M134.091 134.892H109.636C107.298 134.892 105.403 132.998 105.403 130.659C105.403 128.321 107.298 126.426 109.636 126.426H134.091C136.429 126.426 138.325 128.321 138.325 130.659C138.325 132.998 136.429 134.892 134.091 134.892Z" fill="#5DC1D8"/>
<path d="M134.091 148.714H109.636C107.298 148.714 105.403 146.819 105.403 144.481C105.403 142.142 107.298 140.247 109.636 140.247H134.091C136.429 140.247 138.325 142.142 138.325 144.481C138.325 146.819 136.429 148.714 134.091 148.714Z" fill="#5DC1D8"/>
<path d="M134.091 162.536H109.636C107.298 162.536 105.403 160.641 105.403 158.303C105.403 155.964 107.298 154.069 109.636 154.069H134.091C136.429 154.069 138.325 155.964 138.325 158.303C138.325 160.641 136.429 162.536 134.091 162.536Z" fill="#5DC1D8"/>
<path d="M284.484 112.195C286.968 112.195 289 114.227 289 116.711V253.179C289 255.662 286.968 257.694 284.484 257.694H182.802C180.318 257.694 178.286 255.662 178.286 253.179V116.711C178.286 114.227 180.318 112.195 182.802 112.195H284.484Z" fill="#445EA0"/>
<path d="M190.541 239.963C188.988 239.963 187.718 238.693 187.718 237.141V123.717C187.718 122.165 188.988 120.895 190.541 120.895H276.746C278.298 120.895 279.568 122.165 279.568 123.717V237.141C279.568 238.693 278.298 239.963 276.746 239.963H190.541Z" fill="white"/>
<path d="M198.918 237.141V123.717C198.918 122.165 200.188 120.895 201.741 120.895H190.541C188.988 120.895 187.718 122.165 187.718 123.717V237.141C187.718 238.693 188.988 239.963 190.541 239.963H201.741C200.188 239.963 198.918 238.693 198.918 237.141Z" fill="#D9EAFC"/>
<path d="M228.359 251.252C226.807 251.252 225.537 249.982 225.537 248.43V247.332C225.537 245.78 226.807 244.51 228.359 244.51H238.927C240.48 244.51 241.75 245.78 241.75 247.332V248.43C241.75 249.982 240.48 251.252 238.927 251.252H228.359Z" fill="#445EA0"/>
<path d="M279.568 131.785V123.717C279.568 122.165 278.298 120.895 276.746 120.895H190.541C188.988 120.895 187.718 122.165 187.718 123.717V131.785H279.568Z" fill="#FFAF10"/>
<path d="M201.741 120.895H190.541C188.988 120.895 187.718 122.165 187.718 123.717V131.785H198.918V123.717C198.918 122.165 200.188 120.895 201.741 120.895Z" fill="#FF9518"/>
<path d="M252.882 183.409H214.404C212.066 183.409 210.171 181.515 210.171 179.176C210.171 176.838 212.066 174.943 214.404 174.943H252.882C255.22 174.943 257.116 176.838 257.116 179.176C257.116 181.514 255.22 183.409 252.882 183.409Z" fill="#5DC1D8"/>
<path d="M252.882 196.464H214.404C212.066 196.464 210.171 194.569 210.171 192.23C210.171 189.892 212.066 187.997 214.404 187.997H252.882C255.22 187.997 257.116 189.892 257.116 192.23C257.116 194.569 255.22 196.464 252.882 196.464Z" fill="#5DC1D8"/>
<path d="M252.882 209.517H214.404C212.066 209.517 210.171 207.622 210.171 205.283C210.171 202.945 212.066 201.05 214.404 201.05H252.882C255.22 201.05 257.116 202.945 257.116 205.283C257.116 207.622 255.22 209.517 252.882 209.517Z" fill="#5DC1D8"/>
<path d="M270.8 164.965C270.8 166.518 269.53 167.788 267.977 167.788H199.309C197.757 167.788 196.487 166.518 196.487 164.965V141.685C196.487 140.133 197.757 138.863 199.309 138.863H267.977C269.53 138.863 270.8 140.133 270.8 141.685V164.965Z" fill="#C3DDF4"/>
<path d="M207.687 164.965V141.685C207.687 140.133 208.957 138.863 210.509 138.863H199.309C197.757 138.863 196.487 140.133 196.487 141.685V164.965C196.487 166.518 197.757 167.788 199.309 167.788H210.509C208.957 167.788 207.687 166.518 207.687 164.965Z" fill="#AEC1ED"/>
<path d="M260.64 231.096C260.64 232.648 259.37 233.918 257.818 233.918H209.469C207.916 233.918 206.646 232.648 206.646 231.096V221.551C206.646 219.999 207.916 218.729 209.469 218.729H257.818C259.37 218.729 260.64 219.999 260.64 221.551V231.096Z" fill="#C3DDF4"/>
<path d="M217.846 231.096V221.551C217.846 219.999 219.116 218.729 220.668 218.729H209.469C207.916 218.729 206.646 219.999 206.646 221.551V231.096C206.646 232.648 207.916 233.918 209.469 233.918H220.668C219.116 233.918 217.846 232.648 217.846 231.096Z" fill="#AEC1ED"/>
</svg>
